<mxfile host="app.diagrams.net" modified="2024-06-05T06:28:53.272Z" agent="Mozilla/5.0 (Macintosh; Intel Mac OS X 10_15_7) AppleWebKit/537.36 (KHTML, like Gecko) Chrome/125.0.0.0 Safari/537.36 Edg/125.0.0.0" etag="o3adh-JzYcnShemM9SMV" version="24.4.13" type="github">
  <diagram name="第 1 页" id="sqr-4PIAk0c1-e-2aFjk">
    <mxGraphModel dx="1146" dy="770" grid="1" gridSize="10" guides="1" tooltips="1" connect="1" arrows="1" fold="1" page="1" pageScale="1" pageWidth="827" pageHeight="1169" math="0" shadow="0">
      <root>
        <mxCell id="0" />
        <mxCell id="1" parent="0" />
      </root>
    </mxGraphModel>
  </diagram>
</mxfile>
